<svg width="28" height="29" viewBox="0 0 28 29" fill="none" xmlns="http://www.w3.org/2000/svg">
<path d="M13.9995 6.26379C13.5525 6.26379 13.1317 6.2746 12.7558 6.29035C11.6384 6.33714 10.8378 7.31216 10.9313 8.40731C11.0937 10.3076 11.3806 13.48 11.6947 16.0999C9.37231 17.1049 6.73086 18.3279 5.11183 19.0869C4.11665 19.5535 3.67259 20.7344 4.19073 21.7255C4.36506 22.0589 4.56611 22.4287 4.78962 22.8159C5.01312 23.203 5.23289 23.562 5.43449 23.8797C6.03372 24.8239 7.27844 25.0299 8.18004 24.4013C9.5773 23.4272 11.8027 21.8603 13.7664 20.4099C15.7302 21.8603 17.9558 23.4272 19.3531 24.4013C20.2547 25.0299 21.4995 24.824 22.0987 23.8798C22.3003 23.5621 22.52 23.203 22.7435 22.8159C22.967 22.4288 23.1681 22.0589 23.3424 21.7255C23.8606 20.7344 23.4165 19.5535 22.4213 19.087C20.9042 18.3758 18.4898 17.2574 16.2813 16.2926C16.6044 13.6371 16.9015 10.3543 17.0678 8.40731C17.1614 7.31216 16.3606 6.33714 15.2433 6.29035C14.8674 6.2746 14.4466 6.26379 13.9995 6.26379Z" fill="#008CFF"/>
<path fill-rule="evenodd" clip-rule="evenodd" d="M8.93611 9.07422C8.12096 8.90219 7.82486 8.07555 8.22438 7.34452C9.92947 4.22472 11.9718 2.56177 13.1141 1.81263C13.6598 1.45471 14.3402 1.45471 14.8859 1.81263C16.0282 2.56177 18.0705 4.22472 19.7756 7.34452C20.1751 8.07555 19.879 8.90219 19.0639 9.07422C18.1033 9.27692 16.5232 9.47211 14 9.47211C11.4768 9.47211 9.89674 9.27692 8.93611 9.07422ZM5.18939 16.8326C4.65858 16.2475 3.86768 16.4082 3.42964 17.0737C1.41568 20.1336 0.789988 22.7182 0.599214 24.1619C0.496842 24.9366 0.886378 25.6502 1.57193 25.9437C2.84945 26.4909 5.27867 27.2101 8.79115 26.8954C9.55514 26.8269 10.0822 26.1829 9.86845 25.4041C9.61727 24.4889 9.07144 23.0441 7.89737 20.8934C6.72335 18.7426 5.81322 17.5203 5.18939 16.8326ZM24.5697 17.0737C24.1316 16.4082 23.3408 16.2475 22.8099 16.8326C22.1861 17.5203 21.276 18.7426 20.102 20.8934C18.9279 23.0441 18.3821 24.4889 18.1309 25.4041C17.9172 26.1829 18.4442 26.8269 19.2082 26.8954C22.7207 27.2101 25.1499 26.4909 26.4274 25.9437C27.1129 25.6502 27.5025 24.9366 27.4001 24.1619C27.2094 22.7182 26.5837 20.1336 24.5697 17.0737Z" fill="#98D1FF"/>
</svg>
