<svg width="30" height="31" viewBox="0 0 30 31" fill="none" xmlns="http://www.w3.org/2000/svg">
<g clip-path="url(#clip0_4091_9012)">
<path d="M30 15.5C30 7.2158 23.2842 0.5 15 0.5C6.7158 0.5 0 7.2158 0 15.5C0 22.5344 4.8432 28.4372 11.3766 30.0584V20.084H8.2836V15.5H11.3766V13.5248C11.3766 8.4194 13.6872 6.053 18.6996 6.053C19.65 6.053 21.2898 6.2396 21.9606 6.4256V10.5806C21.6066 10.5434 20.9916 10.5248 20.2278 10.5248C17.7684 10.5248 16.818 11.4566 16.818 13.8788V15.5H21.7176L20.8758 20.084H16.818V30.3902C24.2454 29.4932 30.0006 23.1692 30.0006 15.5H30Z" fill="black"/>
<path d="M20.8754 20.0842L21.7172 15.5002H16.8176V13.879C16.8176 11.4568 17.768 10.525 20.2274 10.525C20.9912 10.525 21.6062 10.5436 21.9602 10.5808V6.42582C21.2894 6.23922 19.6496 6.05322 18.6992 6.05322C13.6868 6.05322 11.3762 8.41962 11.3762 13.525V15.5002H8.2832V20.0842H11.3762V30.0586C12.5366 30.3466 13.7504 30.5002 14.9996 30.5002C15.6146 30.5002 16.2212 30.4624 16.817 30.3904V20.0842H20.8748H20.8754Z" fill="white"/>
</g>
<defs>
<clipPath id="clip0_4091_9012">
<rect width="30" height="30" fill="white" transform="translate(0 0.5)"/>
</clipPath>
</defs>
</svg>
