<svg width="25" height="25" viewBox="0 0 25 25" fill="none" xmlns="http://www.w3.org/2000/svg">
<g clip-path="url(#clip0_4107_11318)">
<path d="M0.78125 20.3126C0.78125 21.3366 0.819271 22.0449 0.869271 22.5366C0.973958 23.573 1.80573 24.1673 2.71667 24.198C3.19985 24.213 3.68325 24.2199 4.16667 24.2189C4.7849 24.2189 5.25885 24.21 5.61667 24.198C6.5276 24.1673 7.35938 23.573 7.46406 22.5366C7.51406 22.0449 7.55208 21.3366 7.55208 20.3126C7.55208 19.2886 7.51406 18.5803 7.46458 18.0886C7.35938 17.0522 6.52708 16.4579 5.61667 16.4272C5.13348 16.4122 4.65008 16.4053 4.16667 16.4064C3.68325 16.4053 3.19985 16.4122 2.71667 16.4272C1.80573 16.4579 0.973958 17.0522 0.869271 18.0886C0.819271 18.5803 0.78125 19.2886 0.78125 20.3126Z" fill="#98D1FF"/>
<path d="M17.4473 16.6667C17.4473 19.6282 17.516 21.3094 17.5848 22.2532C17.6608 23.3001 18.4254 24.1167 19.5129 24.1834C19.8587 24.2042 20.2926 24.2188 20.8327 24.2188C21.3728 24.2188 21.8066 24.2042 22.1525 24.1834C23.24 24.1167 24.0046 23.3001 24.0806 22.2532C24.1493 21.3094 24.2181 19.6282 24.2181 16.6667C24.2181 13.7053 24.1493 12.024 24.0806 11.0803C24.0046 10.0334 23.24 9.21672 22.1525 9.15005C21.713 9.12491 21.2729 9.1131 20.8327 9.11463C20.2926 9.11463 19.8587 9.12922 19.5129 9.15005C18.4254 9.21672 17.6608 10.0334 17.5848 11.0803C17.516 12.024 17.4473 13.7053 17.4473 16.6667Z" fill="#98D1FF"/>
<path d="M9.11523 18.7501C9.11523 20.5267 9.1668 21.648 9.22565 22.3527C9.31576 23.4194 10.1319 24.148 11.1637 24.1933C11.5095 24.2084 11.948 24.2189 12.5007 24.2189C13.0527 24.2189 13.4918 24.2084 13.8376 24.1928C14.8689 24.148 15.6855 23.4194 15.7751 22.3527C15.8345 21.648 15.8861 20.5267 15.8861 18.7501C15.8861 16.9735 15.8345 15.8522 15.7757 15.1475C15.6855 14.0808 14.8694 13.3522 13.8376 13.3069C13.3922 13.2887 12.9464 13.2802 12.5007 13.2814C11.9486 13.2814 11.5095 13.2918 11.1637 13.3074C10.1324 13.3522 9.31575 14.0808 9.22617 15.1475C9.1668 15.8522 9.11523 16.9735 9.11523 18.7501Z" fill="#98D1FF"/>
<path d="M21.9642 0.794176C20.6027 0.74298 19.2399 0.853121 17.9043 1.1223C16.8611 1.33584 16.5783 2.59053 17.2705 3.2822L18.2033 4.21553C17.9064 4.48532 17.522 4.83949 17.0887 5.25251C16.0788 6.21449 14.7814 7.51397 13.6694 8.83532C13.6595 8.84624 13.6472 8.85474 13.6335 8.86016C13.6198 8.86558 13.605 8.86777 13.5903 8.86657C13.5771 8.86652 13.5642 8.86367 13.5522 8.85824C13.5467 8.85555 13.542 8.85141 13.5387 8.84626C12.9743 8.05305 12.3871 7.27633 11.7778 6.51709C11.1345 5.72178 9.98453 5.51709 9.10796 6.11136C7.85484 6.96136 5.25223 8.9197 2.34078 12.2489C2.16421 12.4509 1.98661 12.6582 1.80744 12.8702C1.62946 13.0816 1.54272 13.355 1.56631 13.6303C1.58989 13.9055 1.72188 14.1602 1.93322 14.3382C2.14457 14.5162 2.41796 14.6029 2.69326 14.5793C2.96856 14.5557 3.22321 14.4237 3.40119 14.2124C3.5715 14.0103 3.74078 13.8129 3.90953 13.6202C6.62515 10.5145 9.04078 8.68168 10.2043 7.88532C10.7709 8.5939 11.3177 9.31814 11.8439 10.0572C12.6762 11.2228 14.3767 11.2301 15.2632 10.177C16.3048 8.93897 17.5408 7.69886 18.5257 6.76084C18.9052 6.39909 19.2894 6.04229 19.6783 5.69053L20.6767 6.68845C21.3684 7.38063 22.6225 7.09782 22.8366 6.05459C23.1996 4.28584 23.196 2.73168 23.1647 1.9947C23.1525 1.6802 23.0221 1.3819 22.7996 1.15935C22.577 0.936802 22.2787 0.806396 21.9642 0.794176Z" fill="#008CFF"/>
</g>
<defs>
<clipPath id="clip0_4107_11318">
<rect width="25" height="25" fill="white"/>
</clipPath>
</defs>
</svg>
