<svg width="33" height="33" viewBox="0 0 33 33" fill="none" xmlns="http://www.w3.org/2000/svg">
<path d="M8.9375 15.1247C8.57283 15.1247 8.22309 15.2696 7.96523 15.5274C7.70737 15.7853 7.5625 16.135 7.5625 16.4997C7.5625 16.8644 7.70737 17.2141 7.96523 17.472C8.22309 17.7298 8.57283 17.8747 8.9375 17.8747H18.5625V24.3007C18.5626 25.3301 18.9475 26.3222 19.6416 27.0823C20.3358 27.8423 21.2891 28.3154 22.3142 28.4086L27.3756 28.8692C27.7388 28.9022 28.1002 28.7896 28.3804 28.5561C28.6606 28.3226 28.8365 27.9873 28.8695 27.6241C28.9025 27.2609 28.7899 26.8995 28.5564 26.6193C28.3229 26.3391 27.9877 26.1632 27.6244 26.1302L22.5631 25.6696C22.2216 25.6385 21.904 25.481 21.6726 25.2279C21.4412 24.9748 21.3128 24.6444 21.3125 24.3014V17.8747H27.5C27.8647 17.8747 28.2144 17.7298 28.4723 17.472C28.7301 17.2141 28.875 16.8644 28.875 16.4997C28.875 16.135 28.7301 15.7853 28.4723 15.5274C28.2144 15.2696 27.8647 15.1247 27.5 15.1247H21.3125V8.69862C21.3125 8.35547 21.4407 8.0247 21.6721 7.7713C21.9035 7.5179 22.2213 7.36018 22.5631 7.32912L27.6244 6.8685C27.983 6.82973 28.3119 6.65167 28.5404 6.37269C28.7689 6.09371 28.8786 5.73614 28.846 5.37701C28.8133 5.01789 28.6409 4.68596 28.3659 4.45274C28.0908 4.21952 27.7352 4.10368 27.3756 4.13019L22.3142 4.59081C21.2892 4.68396 20.336 5.15692 19.6419 5.91683C18.9477 6.67675 18.5627 7.66871 18.5625 8.69794V15.1247H8.9375Z" fill="#008CFF"/>
<path d="M23.7188 27.1561C23.7188 28.1186 23.7703 28.8199 23.8356 29.3273C23.9834 30.4568 24.8916 31.1698 25.9243 31.233C26.3725 31.2605 26.9933 31.2811 27.8438 31.2811C28.6942 31.2811 29.315 31.2605 29.7632 31.233C30.7959 31.1705 31.7041 30.4568 31.8512 29.3273C31.9172 28.8206 31.9688 28.1186 31.9688 27.1561C31.9688 26.1936 31.9172 25.4924 31.8519 24.985C31.7041 23.8555 30.7959 23.1425 29.7632 23.0793C29.124 23.0441 28.4839 23.028 27.8438 23.0311C26.9933 23.0311 26.3725 23.0518 25.9243 23.0793C24.8916 23.1418 23.9834 23.8555 23.8363 24.985C23.7703 25.4917 23.7188 26.1936 23.7188 27.1561Z" fill="#98D1FF"/>
<path d="M23.7188 16.4999C23.7188 17.4624 23.7703 18.1636 23.8356 18.671C23.9834 19.8006 24.8916 20.5135 25.9243 20.5768C26.3725 20.6043 26.9933 20.6249 27.8438 20.6249C28.6942 20.6249 29.315 20.6043 29.7632 20.5768C30.7959 20.5142 31.7041 19.8006 31.8512 18.671C31.9172 18.1643 31.9688 17.4624 31.9688 16.4999C31.9688 15.5374 31.9172 14.8361 31.8519 14.3288C31.7041 13.1992 30.7959 12.4863 29.7632 12.423C29.124 12.3878 28.4839 12.3718 27.8438 12.3749C26.9933 12.3749 26.3725 12.3955 25.9243 12.423C24.8916 12.4856 23.9834 13.1992 23.8363 14.3288C23.7703 14.8355 23.7188 15.5374 23.7188 16.4999Z" fill="#98D1FF"/>
<path d="M23.7188 5.84363C23.7188 6.80613 23.7703 7.50738 23.8356 8.01476C23.9834 9.14432 24.8916 9.85726 25.9243 9.92051C26.3725 9.94801 26.9933 9.96863 27.8438 9.96863C28.6942 9.96863 29.315 9.94801 29.7632 9.92051C30.7959 9.85795 31.7041 9.14432 31.8512 8.01476C31.9172 7.50807 31.9688 6.80613 31.9688 5.84363C31.9688 4.88113 31.9172 4.17988 31.8519 3.67251C31.7041 2.54295 30.7959 1.83001 29.7632 1.76676C29.124 1.7316 28.4839 1.71556 27.8438 1.71863C26.9933 1.71863 26.3725 1.73926 25.9243 1.76676C24.8916 1.82932 23.9834 2.54295 23.8363 3.67251C23.7703 4.17988 23.7188 4.88113 23.7188 5.84363Z" fill="#98D1FF"/>
<path d="M1.03125 16.5C1.03125 18.5646 1.14537 20.0269 1.28356 21.0444C1.51731 22.7563 2.87994 23.8528 4.50244 23.9559C5.4285 24.0151 6.74575 24.0625 8.59375 24.0625C10.4418 24.0625 11.759 24.0151 12.6851 23.9559C14.3076 23.8528 15.6702 22.7563 15.9039 21.0437C16.0421 20.0269 16.1563 18.5646 16.1563 16.5C16.1563 14.4354 16.0421 12.9731 15.9039 11.9556C15.6702 10.2437 14.3076 9.14719 12.6851 9.04406C11.759 8.98494 10.4418 8.9375 8.59375 8.9375C6.74575 8.9375 5.4285 8.98494 4.50244 9.04406C2.87994 9.14719 1.51731 10.2438 1.28356 11.9563C1.14537 12.9731 1.03125 14.4354 1.03125 16.5Z" fill="#98D1FF"/>
</svg>
