<svg width="32" height="33" viewBox="0 0 32 33" fill="none" xmlns="http://www.w3.org/2000/svg">
<g clip-path="url(#clip0_4091_9016)">
<path d="M9.37347 0.612388C7.67107 0.692708 6.50851 0.964389 5.49219 1.36375C4.44035 1.77367 3.54883 2.32375 2.66179 3.21399C1.77475 4.10423 1.22851 4.99639 0.821466 6.04983C0.427546 7.06839 0.160666 8.23191 0.085466 9.93527C0.010266 11.6386 -0.00637406 12.1861 0.00194594 16.5311C0.0102659 20.8761 0.029466 21.4207 0.112026 23.1276C0.193306 24.8297 0.464026 25.9919 0.863386 27.0086C1.27395 28.0604 1.82339 28.9516 2.71395 29.839C3.60451 30.7263 4.49603 31.2713 5.55203 31.679C6.56963 32.0722 7.73347 32.3404 9.43651 32.415C11.1395 32.4895 11.6877 32.5068 16.0314 32.4985C20.3751 32.4902 20.9219 32.4709 22.6285 32.39C24.3351 32.309 25.4912 32.0364 26.5082 31.639C27.56 31.2274 28.4519 30.6789 29.3386 29.7881C30.2253 28.8972 30.7712 28.0044 31.1779 26.9503C31.5722 25.9327 31.84 24.7689 31.9139 23.0671C31.9885 21.3593 32.0061 20.814 31.9978 16.4697C31.9895 12.1253 31.9699 11.5807 31.889 9.87447C31.808 8.16823 31.537 7.00951 31.1379 5.99223C30.7267 4.94039 30.1779 4.04983 29.2877 3.16183C28.3975 2.27383 27.504 1.72823 26.4503 1.32247C25.432 0.928549 24.2688 0.660068 22.5658 0.586468C20.8627 0.512868 20.3146 0.493988 15.9693 0.502308C11.624 0.510628 11.08 0.529188 9.37347 0.612388ZM9.56035 29.5366C8.00035 29.4687 7.15331 29.2095 6.58883 28.9925C5.84131 28.7045 5.30883 28.3564 4.74627 27.7993C4.18371 27.2422 3.83811 26.7077 3.54627 25.9618C3.32707 25.3973 3.06307 24.5513 2.99011 22.9913C2.91075 21.3052 2.89411 20.799 2.88483 16.5273C2.87555 12.2556 2.89187 11.75 2.96579 10.0633C3.03235 8.50455 3.29315 7.65655 3.50979 7.09239C3.79779 6.34391 4.14467 5.81239 4.70307 5.25015C5.26147 4.68791 5.79427 4.34167 6.54083 4.04983C7.10467 3.82967 7.95075 3.56791 9.51011 3.49367C11.1975 3.41367 11.7031 3.39767 15.9741 3.38839C20.2451 3.37911 20.752 3.39511 22.44 3.46935C23.9987 3.53719 24.8471 3.79543 25.4106 4.01335C26.1584 4.30135 26.6906 4.64727 27.2528 5.20663C27.8151 5.76599 28.1616 6.29687 28.4535 7.04503C28.6739 7.60727 28.9357 8.45303 29.0093 10.0133C29.0896 11.7007 29.1079 12.2066 29.1155 16.4773C29.1232 20.7481 29.1082 21.2553 29.0343 22.9414C28.9661 24.5014 28.7075 25.3487 28.4903 25.9138C28.2023 26.661 27.8551 27.1938 27.2963 27.7557C26.7376 28.3177 26.2055 28.6639 25.4586 28.9557C24.8954 29.1756 24.0483 29.438 22.4903 29.5122C20.8029 29.5916 20.2973 29.6082 16.0247 29.6175C11.752 29.6268 11.248 29.6095 9.56067 29.5366M22.6039 7.94903C22.6045 8.3288 22.7177 8.69985 22.9293 9.01525C23.1408 9.33065 23.4411 9.57624 23.7922 9.72096C24.1433 9.86567 24.5295 9.90301 24.9018 9.82826C25.2741 9.7535 25.616 9.57001 25.884 9.30098C26.152 9.03195 26.3343 8.68948 26.4077 8.31687C26.4811 7.94426 26.4423 7.55826 26.2963 7.20768C26.1503 6.8571 25.9036 6.55769 25.5874 6.34732C25.2713 6.13695 24.8998 6.02507 24.52 6.02583C24.0109 6.02685 23.5231 6.23002 23.1637 6.59067C22.8044 6.95132 22.603 7.43992 22.6039 7.94903ZM7.78467 16.5164C7.79363 21.054 11.4787 24.7241 16.0154 24.7154C20.552 24.7068 24.2247 21.022 24.216 16.4844C24.2074 11.9468 20.5213 8.27575 15.984 8.28471C11.4467 8.29367 7.77603 11.9794 7.78467 16.5164ZM10.6666 16.5106C10.6645 15.4558 10.9753 14.424 11.5596 13.5458C12.1439 12.6675 12.9755 11.9823 13.9492 11.5767C14.923 11.1711 15.9952 11.0633 17.0302 11.2671C18.0652 11.4708 19.0165 11.9769 19.7639 12.7213C20.5112 13.4657 21.0211 14.415 21.2289 15.4492C21.4367 16.4834 21.3332 17.556 20.9315 18.5313C20.5298 19.5067 19.8478 20.341 18.9719 20.9288C18.096 21.5166 17.0654 21.8314 16.0106 21.8335C15.3102 21.835 14.6163 21.6985 13.9687 21.4317C13.321 21.165 12.7322 20.7733 12.236 20.279C11.7397 19.7847 11.3457 19.1975 11.0764 18.5509C10.8072 17.9044 10.6679 17.2111 10.6666 16.5106Z" fill="black"/>
</g>
<defs>
<clipPath id="clip0_4091_9016">
<rect width="32" height="32" fill="white" transform="translate(0 0.5)"/>
</clipPath>
</defs>
</svg>
