<svg width="28" height="29" viewBox="0 0 28 29" fill="none" xmlns="http://www.w3.org/2000/svg">
<path d="M16.799 19.2338C17.8362 18.6204 18.643 17.6831 19.0953 16.5662C19.5475 15.4493 19.6202 14.2147 19.302 13.0524C18.9838 11.8902 18.2925 10.8648 17.3344 10.134C16.3763 9.40317 15.2046 9.00752 13.9996 9.00793C12.7947 9.00778 11.6231 9.40361 10.6652 10.1345C9.70731 10.8654 9.01616 11.8908 8.69814 13.053C8.38012 14.2152 8.45285 15.4497 8.90514 16.5664C9.35743 17.6832 10.1642 18.6204 11.2013 19.2338C8.72273 20.2628 6.86131 22.6159 6.37131 25.4836C6.20915 26.4344 6.74931 27.2132 7.7054 27.3409C8.8044 27.4879 10.7113 27.625 14.0001 27.625C17.289 27.625 19.1959 27.4879 20.2949 27.3409C21.2516 27.2126 21.7911 26.435 21.629 25.4836C21.1396 22.6159 19.277 20.2622 16.799 19.2338Z" fill="#008CFF"/>
<path fill-rule="evenodd" clip-rule="evenodd" d="M14 5.6275C9.12918 5.6275 5.14851 9.59767 5.14851 14.535C5.14851 15.9997 5.49851 17.3776 6.11685 18.5921C6.37235 19.092 6.4441 19.6864 6.08826 20.1204C5.70093 20.5929 5.04235 21.1681 3.99818 21.4714C3.37576 21.6517 2.73526 21.3227 2.42901 20.7516C1.40588 18.8394 0.872003 16.7037 0.875013 14.535C0.875013 7.28417 6.73343 1.375 14 1.375C21.2666 1.375 27.125 7.28475 27.125 14.535C27.125 16.7797 26.5627 18.8983 25.5704 20.7516C25.2648 21.3232 24.6237 21.6517 24.0018 21.4708C22.9577 21.1681 22.2991 20.5929 21.9112 20.1198C21.5553 19.6864 21.6277 19.092 21.8826 18.5921C22.5222 17.3355 22.8542 15.945 22.8515 14.535C22.8515 9.59767 18.8708 5.6275 14 5.6275Z" fill="#98D1FF"/>
</svg>
