<svg width="29" height="29" viewBox="0 0 29 29" fill="none" xmlns="http://www.w3.org/2000/svg">
<g clip-path="url(#clip0_4091_9066)">
<path d="M4.58079 1.29112C6.23863 1.10141 8.87219 0.906264 12.6875 0.906264C13.7208 0.905707 14.7541 0.921216 15.7869 0.952785C15.8689 0.955471 15.9502 0.969292 16.0285 0.993869C16.6919 1.2011 18.4627 1.93879 20.9362 4.36391C23.2695 6.65189 24.0748 8.32906 24.3376 9.06493C24.369 9.15233 24.3867 9.24402 24.3902 9.33681C24.4174 10.0763 24.4391 10.8841 24.453 11.765C23.3263 11.6888 22.2901 12.2344 21.6364 12.8887L13.4306 21.0933C12.766 21.7579 12.2102 22.6677 12.0712 23.7764C11.9849 24.4676 11.9057 25.4668 11.9033 26.8123L11.9039 26.8818C8.50848 26.8576 6.12202 26.6764 4.58079 26.5C2.83173 26.3006 1.50317 24.9708 1.31044 23.2187C1.11348 21.4346 0.90625 18.4694 0.90625 13.8958C0.90625 9.32231 1.11348 6.35706 1.31044 4.57235C1.50377 2.82026 2.83173 1.4911 4.58079 1.29112Z" fill="#98D1FF"/>
<path d="M24.3769 9.21358C22.9148 9.21298 20.4075 9.18942 18.9708 9.05167C17.4012 8.90123 16.1669 7.6494 16.0128 6.04594C15.8835 4.69684 15.86 2.42698 15.8594 0.958252C15.9168 0.964294 15.973 0.976377 16.0285 0.993898C16.6919 1.20113 18.4627 1.93881 20.9362 4.36394C23.2695 6.65192 24.0748 8.32908 24.3376 9.06496C24.3552 9.11329 24.3679 9.16344 24.3769 9.21358Z" fill="#008CFF"/>
<path d="M27.4521 18.8766C28.0509 18.2773 28.3119 17.4145 27.8787 16.6865C27.6086 16.2334 27.205 15.683 26.6051 15.0825C26.0046 14.4825 25.4542 14.0789 25.001 13.8089C24.273 13.3757 23.4103 13.6367 22.8109 14.2354L14.6517 22.3953C14.1677 22.8786 13.8209 23.4834 13.7394 24.1631C13.6669 24.7672 13.5986 25.6493 13.5938 26.8401C13.5929 27.005 13.6247 27.1684 13.6874 27.3209C13.7501 27.4734 13.8424 27.612 13.959 27.7286C14.0756 27.8452 14.2141 27.9375 14.3666 28.0002C14.5191 28.0628 14.6825 28.0947 14.8474 28.0938C16.0388 28.089 16.9203 28.0201 17.5239 27.9476C18.2042 27.8666 18.8083 27.5198 19.2929 27.0359L27.4521 18.8766Z" fill="#008CFF"/>
<path fill-rule="evenodd" clip-rule="evenodd" d="M26.262 20.0657C26.2137 19.9648 26.1593 19.856 26.0971 19.7394C25.7442 19.0827 25.1479 18.1994 24.1541 17.2056C23.2122 16.2637 22.3706 15.6788 21.7253 15.3206L20.375 16.6709C20.4807 16.7168 20.6106 16.7778 20.7629 16.8594C21.2631 17.1276 22.0032 17.6182 22.872 18.487C23.7414 19.3564 24.2314 20.0965 24.5003 20.5967C24.6344 20.8475 24.7141 21.0396 24.7582 21.1592C24.7755 21.2062 24.791 21.2537 24.8048 21.3018C24.8186 21.3592 24.8374 21.4148 24.8609 21.4667L25.1044 21.2233C24.8096 21.2897 24.8023 21.2915 24.8023 21.2921V21.2909L25.1044 21.2233L26.262 20.0657ZM24.8029 21.2927L24.8041 21.2988V21.297L24.8029 21.2946V21.2927Z" fill="#98D1FF"/>
<path fill-rule="evenodd" clip-rule="evenodd" d="M11.4898 4.57723C11.7179 4.7402 11.872 4.98713 11.9181 5.26369C11.9642 5.54026 11.8986 5.82382 11.7357 6.052L8.71482 10.2812C8.62555 10.4061 8.51016 10.51 8.37666 10.5858C8.24316 10.6616 8.09476 10.7074 7.94177 10.7201C7.78877 10.7327 7.63486 10.7119 7.49073 10.6591C7.34659 10.6062 7.2157 10.5226 7.10713 10.4141L4.69046 7.99742C4.50087 7.79747 4.39682 7.5314 4.40048 7.25588C4.40415 6.98036 4.51522 6.71715 4.71006 6.52231C4.90491 6.32747 5.16811 6.21639 5.44364 6.21273C5.71916 6.20907 5.98522 6.31311 6.18517 6.50271L7.71976 8.03669L10.015 4.82312C10.178 4.59497 10.4249 4.44089 10.7014 4.39477C10.978 4.34866 11.2616 4.41429 11.4898 4.57723Z" fill="#008CFF"/>
<path fill-rule="evenodd" clip-rule="evenodd" d="M11.4898 11.2232C11.7179 11.3862 11.872 11.6331 11.9181 11.9097C11.9642 12.1863 11.8986 12.4698 11.7357 12.698L8.71482 16.9272C8.62555 17.0521 8.51016 17.156 8.37666 17.2318C8.24316 17.3076 8.09476 17.3534 7.94177 17.3661C7.78877 17.3787 7.63486 17.3579 7.49073 17.305C7.34659 17.2522 7.2157 17.1686 7.10713 17.0601L4.69046 14.6434C4.50087 14.4435 4.39682 14.1774 4.40048 13.9019C4.40415 13.6264 4.51522 13.3631 4.71006 13.1683C4.90491 12.9735 5.16811 12.8624 5.44364 12.8587C5.71916 12.8551 5.98522 12.9591 6.18517 13.1487L7.71976 14.6827L10.015 11.4691C10.178 11.241 10.4249 11.0869 10.7014 11.0408C10.978 10.9947 11.2616 11.0603 11.4898 11.2232Z" fill="#008CFF"/>
</g>
<defs>
<clipPath id="clip0_4091_9066">
<rect width="29" height="29" fill="white"/>
</clipPath>
</defs>
</svg>
