<svg width="29" height="29" viewBox="0 0 29 29" fill="none" xmlns="http://www.w3.org/2000/svg">
<path fill-rule="evenodd" clip-rule="evenodd" d="M14.5004 3.92701C13.2437 3.92701 12.265 4.03455 11.6385 4.13062C11.5225 4.14874 11.3998 4.22245 11.3164 4.37349C10.8391 5.23745 10.1939 6.53701 9.92383 7.61605C9.8208 7.99816 9.57192 8.32455 9.23072 8.52505C8.88951 8.72555 8.48325 8.78412 8.09931 8.68818C7.71537 8.59223 7.38442 8.34943 7.17765 8.012C6.97087 7.67456 6.90479 7.26945 6.99362 6.8838C7.36458 5.39997 8.17537 3.81162 8.6726 2.91201C9.18191 1.99126 10.0833 1.31399 11.1781 1.14543C12.2779 0.981739 13.3885 0.901759 14.5004 0.90618C15.928 0.90618 17.0621 1.02822 17.8221 1.14543C18.9175 1.3146 19.8189 1.99126 20.3276 2.91201C20.8248 3.81162 21.6362 5.39997 22.0072 6.8838C22.1043 7.27245 22.043 7.68376 21.8368 8.02724C21.6307 8.37072 21.2965 8.61823 20.9079 8.71534C20.5192 8.81244 20.1079 8.75117 19.7644 8.54502C19.421 8.33886 19.1735 8.0047 19.0764 7.61605C18.8063 6.53701 18.1616 5.23685 17.6844 4.37349C17.6004 4.22245 17.4783 4.14874 17.3617 4.13062C16.7364 4.03395 15.7577 3.92701 14.5004 3.92701Z" fill="#008CFF"/>
<path d="M14.5 6.34375C9.42379 6.34375 6.23983 6.63375 4.37719 6.90381C2.63296 7.15575 1.41375 8.54473 1.23552 10.2382C1.07542 11.7734 0.90625 14.0626 0.90625 16.9167C0.90625 19.7714 1.07481 22.0599 1.23613 23.5951C1.41375 25.2886 2.63296 26.6776 4.37719 26.9301C6.23983 27.199 9.4244 27.4896 14.5 27.4896C19.5756 27.4896 22.7602 27.1996 24.6228 26.9295C26.367 26.6776 27.5863 25.2886 27.7645 23.5951C27.9252 22.0599 28.0938 19.7708 28.0938 16.9167C28.0938 14.062 27.9252 11.7734 27.7639 10.2382C27.5863 8.54473 26.367 7.15575 24.6228 6.90321C22.7602 6.63435 19.5756 6.34375 14.5 6.34375Z" fill="#98D1FF"/>
<path d="M28.0721 15.1411L28.0558 15.1435C27.9573 15.158 27.7997 15.1798 27.5737 15.2076C27.1218 15.2613 26.3992 15.335 25.3425 15.4094C23.2285 15.558 19.7842 15.7084 14.5001 15.7084C9.2167 15.7084 5.77174 15.558 3.65777 15.4094C2.91253 15.3599 2.16859 15.2927 1.42658 15.2076C1.26577 15.1886 1.10524 15.1672 0.945057 15.1435L0.92814 15.1411C0.908002 15.9533 0.901758 16.7659 0.909411 17.5783L1.1396 17.6067C1.63502 17.6659 2.39747 17.7433 3.48799 17.82C5.66904 17.9741 9.1726 18.1251 14.5001 18.1251C19.8277 18.1251 23.3306 17.9741 25.5123 17.82C26.2967 17.7677 27.0797 17.6966 27.8607 17.6067C27.9453 17.5971 28.0214 17.5874 28.0909 17.5783C28.0984 16.7659 28.0921 15.9534 28.0721 15.1411Z" fill="#008CFF"/>
<path d="M17.2188 16.9167C17.2188 17.8327 17.1843 18.4785 17.1426 18.9244C17.0562 19.8572 16.3071 20.5001 15.4208 20.5285C15.1803 20.5363 14.8782 20.5417 14.5 20.5417C14.1218 20.5417 13.8197 20.5363 13.5792 20.5285C12.6929 20.5001 11.9438 19.8578 11.8574 18.9244C11.8157 18.4785 11.7812 17.8327 11.7812 16.9167C11.7812 16.0008 11.8157 15.355 11.8574 14.9091C11.9438 13.9763 12.6929 13.3334 13.5792 13.305C13.8197 13.2972 14.1218 13.2917 14.5 13.2917C14.8782 13.2917 15.1803 13.2972 15.4208 13.305C16.3071 13.3334 17.0562 13.9757 17.1426 14.9091C17.1843 15.355 17.2188 16.0008 17.2188 16.9167Z" fill="#008CFF"/>
</svg>
